<svg width="190" height="256" viewBox="0 0 190 256" fill="none" xmlns="http://www.w3.org/2000/svg">
<path fill-rule="evenodd" clip-rule="evenodd" d="M188.636 165.46C186.532 215.715 145.141 255.816 94.3687 255.816C42.2501 255.816 6.62442e-05 212.145 6.62442e-05 161.447C6.62442e-05 154.671 -0.121409 141.128 10.0393 118.279C16.12 104.604 19.9339 96.0136 22.0863 88.1609C23.269 83.8451 25.5689 76.9883 32.1256 88.1609C35.9917 94.7487 36.1412 104.224 36.1412 104.224C36.1412 104.224 50.5254 93.1856 60.2354 72.0982C74.47 41.1844 63.1126 22.7052 59.2314 9.85505C57.8882 5.40969 57.0449 -2.57952 66.2589 0.819757C75.6476 4.28429 100.469 21.6592 113.443 39.9727C131.961 66.1098 138.541 91.1727 138.541 91.1727C138.541 91.1727 144.47 83.814 146.573 76.1139C148.947 67.4189 148.982 58.8073 156.611 68.0835C163.866 76.905 174.641 93.4827 180.706 109.243C191.718 137.864 188.636 165.46 188.636 165.46Z" fill="url(#paint0_linear_24_20)"/>
<path fill-rule="evenodd" clip-rule="evenodd" d="M94.3687 255.816C58.3289 255.816 29.1138 226.601 29.1138 190.561C29.1138 168.815 37.877 155.612 56.1153 137.708C67.7929 126.245 78.7226 112.165 83.3677 102.577C84.2823 100.69 86.3634 90.8545 94.3878 102.37C98.5972 108.41 105.196 119.151 109.428 128.318C116.722 144.123 118.463 159.439 118.463 159.439C118.463 159.439 125.612 155.227 130.51 144.381C132.089 140.885 135.282 127.651 144.206 140.883C150.755 150.593 159.751 168.051 159.624 190.561C159.624 226.601 130.407 255.816 94.3687 255.816Z" fill="url(#paint1_linear_24_20)"/>
<path fill-rule="evenodd" clip-rule="evenodd" d="M95.3726 184.537C104.659 184.537 104.659 201.734 116.455 224.694C124.31 239.983 112.561 255.816 95.3726 255.816C78.1845 255.816 69.2707 241.882 69.2707 224.694C69.2707 207.507 86.0863 184.537 95.3726 184.537Z" fill="#3FB3B2"/>
<defs>
<linearGradient id="paint0_linear_24_20" x1="94.5102" y1="256.005" x2="94.5102" y2="0.193308" gradientUnits="userSpaceOnUse">
<stop offset="0.425" stop-color="#1D89C5"/>
<stop offset="1" stop-color="#1363E6"/>
</linearGradient>
<linearGradient id="paint1_linear_24_20" x1="94.3694" y1="96.8674" x2="94.3694" y2="255.816" gradientUnits="userSpaceOnUse">
<stop stop-color="#78CD8B"/>
<stop offset="1" stop-color="#A8E989"/>
</linearGradient>
</defs>
</svg>
