<svg width="256" height="256" viewBox="0 0 256 256" fill="none" xmlns="http://www.w3.org/2000/svg">
<g clip-path="url(#clip0_20_2)">
<path fill-rule="evenodd" clip-rule="evenodd" d="M221.765 165.455C219.661 215.711 178.27 255.811 127.498 255.811C75.3794 255.811 33.1294 212.141 33.1294 161.443C33.1294 154.666 33.0079 141.123 43.1686 118.274C49.2494 104.6 53.0633 96.009 55.2157 88.1564C56.3983 83.8405 58.6983 76.9837 65.2549 88.1564C69.121 94.7441 69.2706 104.219 69.2706 104.219C69.2706 104.219 83.6548 93.181 93.3647 72.0936C107.599 41.1799 96.2419 22.7007 92.3608 9.85047C91.0175 5.40511 90.1742 -2.5841 99.3882 0.815179C108.777 4.27971 133.598 21.6546 146.573 39.9681C165.09 66.1052 171.671 91.1681 171.671 91.1681C171.671 91.1681 177.6 83.8094 179.702 76.1093C182.076 67.4143 182.111 58.8027 189.74 68.0789C196.995 76.9004 207.771 93.4781 213.835 109.239C224.847 137.86 221.765 165.455 221.765 165.455Z" fill="url(#paint0_linear_20_2)"/>
<path fill-rule="evenodd" clip-rule="evenodd" d="M127.498 255.811C91.4582 255.811 62.2431 226.596 62.2431 190.556C62.2431 168.81 71.0063 155.608 89.2446 137.704C100.922 126.24 111.852 112.16 116.497 102.573C117.412 100.685 119.493 90.8499 127.517 102.366C131.727 108.405 138.325 119.146 142.557 128.313C149.851 144.118 151.592 159.435 151.592 159.435C151.592 159.435 158.741 155.222 163.639 144.376C165.218 140.88 168.411 127.647 177.336 140.878C183.884 150.588 192.88 168.046 192.753 190.556C192.753 226.596 163.537 255.811 127.498 255.811Z" fill="url(#paint1_linear_20_2)"/>
<path fill-rule="evenodd" clip-rule="evenodd" d="M128.502 184.533C137.788 184.533 137.788 201.729 149.584 224.69C157.439 239.978 145.69 255.811 128.502 255.811C111.314 255.811 102.4 241.878 102.4 224.69C102.4 207.503 119.216 184.533 128.502 184.533Z" fill="#C74949"/>
</g>
<defs>
<linearGradient id="paint0_linear_20_2" x1="127.64" y1="256" x2="127.64" y2="0.188731" gradientUnits="userSpaceOnUse">
<stop offset="0.425" stop-color="#EA7434"/>
<stop offset="1" stop-color="#F6A50B"/>
</linearGradient>
<linearGradient id="paint1_linear_20_2" x1="127.499" y1="96.8628" x2="127.499" y2="255.811" gradientUnits="userSpaceOnUse">
<stop stop-color="#8B2D74"/>
<stop offset="1" stop-color="#4F0B76"/>
</linearGradient>
<clipPath id="clip0_20_2">
<rect width="256" height="256" fill="white"/>
</clipPath>
</defs>
</svg>
