<svg width="64" height="64" viewBox="0 0 64 64" fill="none" xmlns="http://www.w3.org/2000/svg">
<path d="M59.08 49.326L33.14 64V52.574L49.3 43.682L59.08 49.326ZM60.856 47.72V17.04L51.368 22.524V42.248L60.856 47.72ZM4.92401 49.326L30.86 64V52.574L14.69 43.68L4.92401 49.326ZM3.14801 47.72V17.04L12.636 22.524V42.248L3.14801 47.72ZM4.26001 15.048L30.86 0V11.044L13.68 20.5L4.26001 15.048ZM59.74 15.048L33.14 0V11.044L50.32 20.49L59.74 15.048Z" fill="#673F69"/>
<path d="M36.7 31.465C38.2867 31.6517 39.4183 32.1883 40.095 33.075C40.7717 33.9383 41.11 34.9883 41.11 36.225C41.11 36.995 40.9933 37.73 40.76 38.43C40.5267 39.1067 40.2467 39.69 39.92 40.18C39.5933 40.6467 39.3133 40.95 39.08 41.09C38.1467 41.6967 35.3 42 30.54 42H23.75V22.05H31.975C33.8417 22.05 35.3467 22.155 36.49 22.365C37.6567 22.5517 38.6017 22.995 39.325 23.695C40.0483 24.3717 40.41 25.41 40.41 26.81C40.41 28.0233 40.1067 29.0033 39.5 29.75C38.9167 30.4967 37.9833 31.01 36.7 31.29V31.465ZM33.9 26.285C33.6667 26.0517 33.3867 25.9117 33.06 25.865C32.7567 25.795 32.2667 25.76 31.59 25.76C30.9133 25.76 30.4 25.7717 30.05 25.795V30.065H30.4C30.5167 30.065 31.0067 30.065 31.87 30.065C32.7333 30.065 33.305 30.0067 33.585 29.89C33.795 29.7967 33.9817 29.5517 34.145 29.155C34.3317 28.7583 34.425 28.3267 34.425 27.86C34.425 27.16 34.25 26.635 33.9 26.285ZM34.495 37.975C34.6583 37.835 34.7867 37.5783 34.88 37.205C34.9967 36.8083 35.055 36.4117 35.055 36.015C35.055 35.525 34.985 35.07 34.845 34.65C34.7283 34.2067 34.565 33.8917 34.355 33.705C34.145 33.495 33.8417 33.355 33.445 33.285C33.0717 33.215 32.43 33.18 31.52 33.18C30.9367 33.18 30.4467 33.1917 30.05 33.215V38.29C31.1467 38.3133 32.1267 38.3017 32.99 38.255C33.8533 38.185 34.355 38.0917 34.495 37.975Z" fill="#D74B76"/>
</svg>
