<!DOCTYPE svg PUBLIC "-//W3C//DTD SVG 1.1//EN" "http://www.w3.org/Graphics/SVG/1.1/DTD/svg11.dtd">
<!-- Uploaded to: SVG Repo, www.svgrepo.com, Transformed by: SVG Repo Mixer Tools -->
<svg fill="#ffffff" height="800px" width="800px" version="1.1" id="Layer_1" xmlns="http://www.w3.org/2000/svg" xmlns:xlink="http://www.w3.org/1999/xlink" viewBox="0 0 496 496" xml:space="preserve" stroke="#ffffff">
<g id="SVGRepo_bgCarrier" stroke-width="0"/>
<g id="SVGRepo_tracerCarrier" stroke-linecap="round" stroke-linejoin="round"/>
<g id="SVGRepo_iconCarrier"> <g> <g> <path d="M496,288v-80h-22.888c-1.408-4.024-3.024-7.944-4.824-11.72l16.168-16.16l-56.568-56.568l-16.16,16.16 c-3.784-1.8-7.704-3.408-11.728-4.824V112h-80v22.888c-4.024,1.416-7.944,3.024-11.728,4.824l-4.272-4.28V104h-16V80h16V0H0v80h16 v24H0v80h16v24H0v80h16v24H0v80h16v24H0v80h304v-80h-16v-24h16v-31.432l4.272-4.272c3.784,1.8,7.704,3.408,11.728,4.824V384h32 v16.72c-22.664,3.824-40,23.536-40,47.28c0,26.472,21.528,48,48,48s48-21.528,48-48c0-23.736-17.336-43.448-40-47.28V384h32 v-22.888c4.024-1.416,7.944-3.024,11.728-4.824l16.16,16.16l56.568-56.568l-16.168-16.16c1.8-3.784,3.416-7.696,4.824-11.72H496z M208,16h80v48h-80V16z M208,272v-48h80v48H208z M272,288v24H32v-24H272z M32,208v-24h240v24H32z M208,168v-48h80v48H208z M32,104 V80h240v24H32z M16,16h176v48h-16V32h-16v32h-16V32h-16v32h-16V32H96v32H80V32H64v32H48V32H32v32H16V16z M16,120h176v48h-16v-32 h-16v32h-16v-32h-16v32h-16v-32H96v32H80v-32H64v32H48v-32H32v32H16V120z M16,224h176v48h-16v-32h-16v32h-16v-32h-16v32h-16v-32 H96v32H80v-32H64v32H48v-32H32v32H16V224z M16,328h176v48h-16v-32h-16v32h-16v-32h-16v32h-16v-32H96v32H80v-32H64v32H48v-32H32v32 H16V328z M272,392v24H32v-24H272z M192,480h-16v-32h-16v32h-16v-32h-16v32h-16v-32H96v32H80v-32H64v32H48v-32H32v32H16v-48h176 V480z M288,480h-80v-48h80V480z M288,376h-80v-48h80V376z M336,368v-18.664l-5.72-1.704c-6.976-2.08-13.624-4.816-19.752-8.136 l-5.248-2.84l-1.28,1.288V312h-16v-24h12.176c11.528,17.184,30.256,29.128,51.824,31.528V368H336z M392,448 c0,17.648-14.352,32-32,32s-32-14.352-32-32s14.352-32,32-32S392,430.352,392,448z M352,240v63.36 c-27.088-3.904-48-27.208-48-55.36c0-30.88,25.128-56,56-56s56,25.12,56,56c0,28.152-20.912,51.456-48,55.36V288h24v-16h-24v-16 h32v-16H352z M461.832,315.88l-33.944,33.944l-13.168-13.168l-5.248,2.84c-6.128,3.32-12.776,6.056-19.752,8.136l-5.72,1.704V368 h-16v-48.472c35.944-4,64-34.536,64-71.528c0-39.696-32.296-72-72-72c-24.912,0-46.896,12.72-59.824,32H288v-24h16v-25.944 l1.28,1.28l5.248-2.84c6.128-3.32,12.776-6.056,19.752-8.136l5.72-1.696V128h48v18.664l5.72,1.704 c6.976,2.08,13.624,4.816,19.752,8.136l5.248,2.84l13.168-13.168l33.944,33.944l-13.168,13.168l2.84,5.248 c3.32,6.136,6.064,12.776,8.128,19.744l1.696,5.72H480v48h-18.672l-1.704,5.72c-2.064,6.968-4.808,13.608-8.128,19.744 l-2.84,5.248L461.832,315.88z"/> </g> </g> </g>
</svg>